<?xml version="1.0" standalone="no"?>
<!DOCTYPE svg PUBLIC "-//W3C//DTD SVG 20010904//EN"
 "http://www.w3.org/TR/2001/REC-SVG-20010904/DTD/svg10.dtd">
<svg version="1.0" xmlns="http://www.w3.org/2000/svg"
 width="500.000000pt" height="500.000000pt" viewBox="0 0 500.000000 500.000000"
 preserveAspectRatio="xMidYMid meet">

<g transform="translate(0.000000,500.000000) scale(0.100000,-0.100000)"
fill="#000000" stroke="none">
<path d="M3474 4902 c-17 -9 -49 -37 -70 -62 -41 -46 -407 -493 -569 -695
-155 -192 -317 -388 -353 -427 l-34 -36 57 -209 c75 -275 135 -463 150 -463
12 0 166 93 279 169 39 26 121 78 183 115 l112 67 6 47 c18 128 45 246 221
972 105 430 118 501 98 519 -20 19 -51 20 -80 3z"/>
<path d="M1220 4469 c-51 -21 -52 -51 -4 -184 20 -55 80 -228 134 -385 54
-157 120 -344 145 -417 l47 -132 58 -40 c78 -55 131 -99 225 -190 203 -194
399 -361 425 -361 20 0 126 79 188 139 25 24 42 50 42 63 0 23 -12 76 -89 410
-22 98 -43 200 -47 228 -6 48 -9 51 -63 82 -31 17 -147 104 -257 192 -111 89
-235 187 -275 218 -238 185 -341 268 -397 320 -34 32 -67 58 -72 58 -4 0 -14
2 -22 4 -7 3 -24 0 -38 -5z"/>
<path d="M3255 3231 c-85 -39 -469 -303 -560 -387 -52 -47 -55 -53 -55 -96 0
-110 71 -197 200 -244 241 -87 607 -204 639 -204 12 0 48 21 79 46 31 25 133
84 227 131 93 47 244 125 335 173 91 48 212 111 270 140 163 82 307 170 320
196 9 16 10 33 4 56 -13 45 -36 50 -349 83 -143 15 -316 33 -385 41 -369 42
-561 65 -609 74 -70 13 -69 13 -116 -9z"/>
<path d="M1443 3230 c-18 -4 -97 -10 -175 -14 -425 -20 -877 -46 -906 -52 -35
-7 -49 -47 -28 -80 15 -22 198 -148 403 -275 594 -371 676 -430 698 -498 8
-27 12 -26 66 7 24 15 92 54 151 85 175 93 386 213 402 227 4 5 -25 46 -66 92
-42 47 -98 116 -126 154 -63 86 -346 364 -370 363 -9 -1 -32 -5 -49 -9z"/>
<path d="M2095 2506 c-151 -91 -526 -285 -600 -311 -53 -18 -63 -25 -82 -64
-34 -66 -59 -103 -278 -396 -271 -363 -409 -553 -429 -592 -19 -38 -21 -74 -4
-91 34 -34 79 -17 526 207 240 120 479 235 529 256 51 21 97 43 103 49 5 7 32
107 60 224 28 116 57 229 65 251 7 22 55 112 106 200 95 167 114 224 90 270
-15 27 -36 26 -86 -3z"/>
<path d="M2453 2443 c-16 -6 -258 -312 -301 -379 -33 -53 -74 -161 -118 -319
-36 -127 -208 -813 -245 -975 -28 -126 -73 -309 -120 -495 -35 -137 -13 -205
68 -205 69 0 119 48 263 253 30 43 70 98 88 123 18 24 30 49 26 56 -4 6 -3 8
4 4 6 -3 20 11 33 31 13 21 26 40 30 43 3 3 58 82 121 175 127 188 193 285
206 300 31 40 48 72 44 85 -3 8 -1 12 3 7 5 -4 64 77 131 179 137 209 153 228
208 256 69 35 115 17 509 -201 81 -45 153 -78 159 -75 6 4 8 3 5 -3 -4 -6 0
-14 9 -17 24 -9 31 -7 14 5 -13 9 -13 10 0 6 8 -2 14 -9 13 -15 -2 -6 6 -16
17 -22 11 -6 20 -7 20 -3 0 4 4 3 8 -2 11 -15 78 -57 175 -107 20 -11 39 -24
42 -29 3 -4 13 -5 22 -2 11 4 14 3 9 -5 -5 -8 2 -12 19 -12 14 0 39 -7 54 -15
16 -8 31 -11 35 -8 6 6 10 -13 7 -31 -1 -5 5 -6 14 -2 9 3 13 2 10 -4 -3 -6 2
-13 12 -16 10 -3 32 -13 48 -21 17 -8 49 -13 75 -11 39 3 45 6 48 28 9 58 -28
124 -198 365 -137 194 -418 609 -484 718 -36 57 -54 77 -70 77 -11 0 -52 9
-91 19 -201 54 -492 137 -585 166 -163 53 -313 87 -337 78z m1421 -1309 c3 -8
2 -12 -4 -9 -6 3 -10 10 -10 16 0 14 7 11 14 -7z"/>
</g>
</svg>
